<svg width="600" height="400" viewBox="0 0 600 400" fill="none" xmlns="http://www.w3.org/2000/svg">
  <rect x="150" y="50" width="300" height="300" rx="20" fill="#F8F9FA"/>
  
  <!-- Developer avatars -->
  <circle cx="200" cy="150" r="40" fill="#E76F51"/>
  <circle cx="200" cy="150" r="35" fill="#F8F9FA"/>
  <circle cx="200" cy="140" r="10" fill="#264653"/>
  <path d="M180 170C180 160 190 155 200 155C210 155 220 160 220 170" stroke="#264653" stroke-width="3" stroke-linecap="round"/>
  
  <circle cx="300" cy="120" r="40" fill="#2A9D8F"/>
  <circle cx="300" cy="120" r="35" fill="#F8F9FA"/>
  <circle cx="300" cy="110" r="10" fill="#264653"/>
  <path d="M280 140C280 130 290 125 300 125C310 125 320 130 320 140" stroke="#264653" stroke-width="3" stroke-linecap="round"/>
  
  <circle cx="400" cy="150" r="40" fill="#F4A261"/>
  <circle cx="400" cy="150" r="35" fill="#F8F9FA"/>
  <circle cx="400" cy="140" r="10" fill="#264653"/>
  <path d="M380 170C380 160 390 155 400 155C410 155 420 160 420 170" stroke="#264653" stroke-width="3" stroke-linecap="round"/>
  
  <circle cx="250" cy="250" r="40" fill="#264653"/>
  <circle cx="250" cy="250" r="35" fill="#F8F9FA"/>
  <circle cx="250" cy="240" r="10" fill="#264653"/>
  <path d="M230 270C230 260 240 255 250 255C260 255 270 260 270 270" stroke="#264653" stroke-width="3" stroke-linecap="round"/>
  
  <circle cx="350" cy="250" r="40" fill="#E9C46A"/>
  <circle cx="350" cy="250" r="35" fill="#F8F9FA"/>
  <circle cx="350" cy="240" r="10" fill="#264653"/>
  <path d="M330 270C330 260 340 255 350 255C360 255 370 260 370 270" stroke="#264653" stroke-width="3" stroke-linecap="round"/>
  
  <!-- Connection lines -->
  <line x1="230" y1="170" x2="270" y2="230" stroke="#2A9D8F" stroke-width="2" stroke-dasharray="5 5"/>
  <line x1="330" y1="150" x2="370" y2="230" stroke="#2A9D8F" stroke-width="2" stroke-dasharray="5 5"/>
  <line x1="230" y1="130" x2="270" y2="110" stroke="#2A9D8F" stroke-width="2" stroke-dasharray="5 5"/>
  <line x1="330" y1="110" x2="370" y2="130" stroke="#2A9D8F" stroke-width="2" stroke-dasharray="5 5"/>
  <line x1="290" y1="250" x2="310" y2="250" stroke="#2A9D8F" stroke-width="2" stroke-dasharray="5 5"/>
  
  <!-- Code symbols -->
  <text x="190" y="180" font-family="monospace" font-size="12" fill="#2A9D8F">&lt;/&gt;</text>
  <text x="290" y="150" font-family="monospace" font-size="12" fill="#2A9D8F">{}</text>
  <text x="390" y="180" font-family="monospace" font-size="12" fill="#2A9D8F">[]</text>
  <text x="240" y="280" font-family="monospace" font-size="12" fill="#2A9D8F">&lt;/&gt;</text>
  <text x="340" y="280" font-family="monospace" font-size="12" fill="#2A9D8F">{}</text>
  
 </svg>